<svg xmlns="http://www.w3.org/2000/svg" viewBox="0 0 617.44 595.25"><defs><style>.cls-1,.cls-10,.cls-21,.cls-3,.cls-4{fill:none;}.cls-1,.cls-10,.cls-11,.cls-12,.cls-13,.cls-14,.cls-15,.cls-16,.cls-17,.cls-18,.cls-19,.cls-2,.cls-20,.cls-21,.cls-22,.cls-23,.cls-24,.cls-3,.cls-4,.cls-5,.cls-6,.cls-7,.cls-8,.cls-9{stroke:#000;stroke-miterlimit:10;}.cls-1{stroke-width:20px;}.cls-2{fill:#ac948b;stroke-width:6px;}.cls-20,.cls-24,.cls-3,.cls-5,.cls-8,.cls-9{stroke-width:4px;}.cls-11,.cls-12,.cls-15,.cls-16,.cls-17,.cls-18,.cls-4,.cls-6,.cls-7{stroke-width:2px;}.cls-25,.cls-5,.cls-7{fill:#3fa9f5;}.cls-6,.cls-8{fill:#f7931e;}.cls-9{fill:#d1bc98;}.cls-11{fill:#8a7c63;}.cls-12{fill:#faecca;}.cls-13{fill:#a78f92;}.cls-14,.cls-17{fill:#fff;}.cls-15{fill:#f9eac8;}.cls-16{fill:#b59a8a;}.cls-18{fill:#754c24;}.cls-20{fill:#42210b;}.cls-21{stroke-width:3px;}.cls-22,.cls-24{fill:#ff0;}.cls-23{fill:#cfcfce;}</style></defs><g id="Layer_23" data-name="Layer 23"><polyline class="cls-1" points="4.95 185.45 310.11 11.52 612.45 185.45"/><polyline class="cls-1" points="74.09 178.8 74.09 496.93 306.71 496.93 540.07 496.93 540.07 178.8"/><path class="cls-2" d="M975.54,597.93c11.39-3.62,18.16-9.12,21.9-12.83,13.63-13.55,17.9-34.07,20.39-46.07,2.56-12.3,1.42-14.73,4.53-17.36,10.73-9.09,41.13,5.54,59.66,24.91,9.32,9.76,20.3,21.25,20.38,37,.11,21.94-21,37.33-50.59,58.9-17.32,12.62-30.29,18-40.78,21.14a120.86,120.86,0,0,1-24.16,4.53Z" transform="translate(-614.55 -214.16)"/><path class="cls-3" d="M1026,528.46a78.68,78.68,0,0,1,30.3,8.31c2.78,1.42,35.37,18.53,34,40.77-.49,7.83-5,13.5-8.3,17.37-21.24,24.93-51.92,45.87-71.74,58.15" transform="translate(-614.55 -214.16)"/><line class="cls-4" x1="424.43" y1="325.46" x2="455.62" y2="376.6"/><line class="cls-4" x1="407.06" y1="347.52" x2="435.77" y2="397.16"/><line class="cls-4" x1="455.62" y1="351.03" x2="385.91" y2="399.42"/><line class="cls-4" x1="435.77" y1="332.16" x2="386.71" y2="379.37"/><path class="cls-5" d="M844.15,335.9c1.93-8.89,10.6-26.43,19.63-36.24a79,79,0,0,1,11.33-9.82c9.65-7.31,14.48-11,19.63-10.57a6.62,6.62,0,0,0,4.53-.76c2.13-1.45,1.51-3.71,3-6,2-3.07,6-3.65,12.08-4.53,2.62-.38,10.83-.26,10.83-.26a46.45,46.45,0,0,1,11.07.26c6,.88,10.08,1.46,12.08,4.53,1.51,2.33.89,4.59,3,6a6.63,6.63,0,0,0,4.53.76c5.16-.4,10,3.26,19.63,10.57a79,79,0,0,1,11.33,9.82c9,9.81,13.17,21.31,15.1,30.2" transform="translate(-614.55 -214.16)"/><polyline class="cls-6" points="294.54 106.64 310.4 104.93 327.01 106.64"/><path class="cls-7" d="M992,331l-14.19,10.19-9.06-3-6.8-3-36.25-3H925l-36.25,3-6.79,3-9.06,3s-9-3.87-8.29-7.22,17-4.28,17-4.28l2.62-4.36,9.06-3,15.86-1.51-2.72-22.13-1.81-13.36-5.29-6.8" transform="translate(-614.55 -214.16)"/><polyline class="cls-4" points="387.28 115.07 371.55 119.8 354.56 115.53 351.93 111.17 342.87 108.15 327.01 106.64 329.74 84.5 331.54 71.15 336.83 64.35"/><path class="cls-8" d="M864.51,333" transform="translate(-614.55 -214.16)"/><path class="cls-6" d="M851.7,337.41" transform="translate(-614.55 -214.16)"/><path class="cls-9" d="M924.69,332l-25.42,1.64-19.63,3-8.31,4.53c-1.07-1.5-7.49-10.2-18.87-11.33-2.19-.22-10.58-1.05-16.62,4.53-7.81,7.23-6.5,20.41-2.26,27.94a25.4,25.4,0,0,0,10.57,10.57c3.37,1.67,5.62,1.65,6,3,.56,1.84-2.39,5.4-16.48,12.83h4.4l-9.06,9.06,4.53,2.27-15.86,10.57,9.06-1.51L810.07,426.9l9.16-7.18L807.9,444.64l3.78-3-2.27,18.12,2.27-2.26,3,24.62,2.27-8,7.55,23.41.75-9.06,12.08,26.43v-7.55l9.82,21.14v-7.55l3.78,6.8q14.84,12.43,13.59,14.34h-2.93a40.84,40.84,0,0,0-18.88,3,39.87,39.87,0,0,0-14.25,10.25,54,54,0,0,0-3.87,4.86c-6.59,9.11-8.17,18-9.06,23.41-3.17,19.13,3.39,40.4,6,37.75,1.51-1.51,3.71-5.24,8.3-6.79,4.23-1.44,7.62,1.05,9.82-.76,1.56-1.28-.62-3-.75-6.8-.05-1.2-.32-11.78,3.77-17.36.91-1.25,4.77-6,14.86-7.24L861.27,565l-.51,9.5-5.28,22.66-15.11,58.14,2.27,14.35,9.06,12.08,13.59,9.06-4.53,1.51-12.83,3.78-6.8,2.26-8.31-.75-4.53,5.12v5.45l3,4.53,3,.76,4.22,0,2.58,0H851.7l5.25.75h12.12l12.71-3,9.94-1.51,13.6,1.51,5.28-2.26,2.27-3,.75-6-4.53-6.8-2.49-4.93,7-2.62,9.82,2.26,1.51.36,11.33-2.62,7,2.62-2.49,4.93-4.53,6.8.75,6,2.27,3,5.28,2.26,13.59-1.51,10,1.51,12.71,3h12.11l5.26-.75h10.57l2.58,0,4.21,0,3-.76,3-4.53v-5.45l-4.54-5.12-8.3.75-6.8-2.26-12.84-3.78-4.53-1.51,13.6-9.06,9.06-12.08,2.26-14.35-15.1-58.14-5.29-22.66,1.52-9.06,2.26,15.1c11.09.08,11.93,5.56,12.84,6.8,4.09,5.59,3.81,16.16,3.77,17.37-.13,3.8-2.31,5.52-.75,6.8,2.19,1.8,5.59-.68,9.81.75,4.6,1.56,6.8,5.29,8.31,6.8,2.65,2.64,9.21-18.62,6-37.76-.89-5.39-2.47-14.29-9.06-23.41a54,54,0,0,0-3.87-4.86,40.08,40.08,0,0,0-14.25-10.24,40.71,40.71,0,0,0-18.88-3A158.8,158.8,0,0,0,999,527.71l3.78-6.8v7.55l9.81-21.14v7.55l12.09-26.43.75,9.06,7.55-23.41,2.27,8,3-24.62,2.26,2.26-2.26-18.12,3.77,3-11.32-24.92,9.16,7.18-16.71-17.75,9.06,1.51-15.86-10.57,4.53-2.27-9.06-9.06h4.4c-14.09-7.43-17-11-16.48-12.83.41-1.38,2.66-1.36,6-3a25.4,25.4,0,0,0,10.57-10.57c4.24-7.53,5.55-20.71-2.27-27.94-6-5.58-14.42-4.75-16.61-4.53-11.38,1.13-17.8,9.83-18.88,11.33l-8.3-4.53-19.64-3Z" transform="translate(-614.55 -214.16)"/><path class="cls-10" d="M989.51,699.5c.25-.07,5.42-1.33,9.06,2.26a9.61,9.61,0,0,1,1.51,11.33" transform="translate(-614.55 -214.16)"/><path class="cls-10" d="M1004.61,700.25a7.39,7.39,0,0,1,6,12.08" transform="translate(-614.55 -214.16)"/><path class="cls-10" d="M861.16,700c-2-.65-3.44.43-5.31,1a9.53,9.53,0,0,0-4.53,3.77c-2.87,4.07-1.61,7.32-1.51,7.55" transform="translate(-614.55 -214.16)"/><path class="cls-10" d="M843.82,700.25a8.81,8.81,0,0,0-3.82,3c-2.74,3.92-.93,8.63-.76,9.06" transform="translate(-614.55 -214.16)"/><path class="cls-4" d="M854,372.15" transform="translate(-614.55 -214.16)"/><path class="cls-4" d="M868.31,358.56" transform="translate(-614.55 -214.16)"/><ellipse class="cls-11" cx="384.03" cy="136.84" rx="16.24" ry="17.37"/><ellipse class="cls-11" cx="384.03" cy="136.84" rx="16.24" ry="17.37"/><ellipse class="cls-11" cx="237.53" cy="136.84" rx="16.24" ry="17.37"/><path class="cls-12" d="M925,551.34a48.83,48.83,0,0,0-11.33.53c-4.57.76-13.82,2.29-21.9,9.82-2.44,2.28-8.25,7.69-9.81,15.85-.65,3.4-.7,7.94-.76,13.6,0,5.13.2,4.94,0,6.79-.64,6.06-3.49,9.69-6.79,15.11-4.61,7.55-7,11.47-8.31,16.61-2.61,10.23.56,19.45,2.26,23.41a40.34,40.34,0,0,0,9.82,13.59C889.76,677.74,904,680.28,910.6,681h28.7c6.57-.72,20.84-3.26,32.47-14.35a40.21,40.21,0,0,0,9.81-13.59c1.71-4,4.88-13.18,2.27-23.41-1.31-5.14-3.7-9.06-8.31-16.61-3.3-5.42-6.15-9-6.79-15.11-.2-1.85,0-1.66,0-6.79-.06-5.66-.11-10.2-.76-13.6-1.56-8.16-7.37-13.57-9.82-15.85-8.07-7.53-17.32-9.06-21.89-9.82a48.83,48.83,0,0,0-11.33-.53" transform="translate(-614.55 -214.16)"/><path class="cls-13" d="M925.64,528.46h-24A21,21,0,0,1,892,526.2c-11.21-5.73-15.07-20.65-21.13-45.31-4.08-16.57-2.45-20.13-1-20.38,6.72-1.14,11.53,1.4,29.77,1.13,1.82,0,12.25-4.53,23.06-4.53,12.4,0,26.34,6.76,28.81,6.79,18.25.27,25.79-7.85,29.78-3.39,1.09,1.22,2.15,3.81-1.92,20.38-6.06,24.66-9.93,39.58-21.13,45.31a21,21,0,0,1-9.61,2.26h-24" transform="translate(-614.55 -214.16)"/><polygon class="cls-14" points="308.62 254.09 298.45 256.47 292.4 259.1 292.28 295.94 295.76 302.97 311.01 302.97 309.03 302.97 324.28 302.97 327.77 295.94 327.17 258.4 321.19 258.4 309.22 254.54 308.62 254.09"/><line class="cls-14" x1="309.22" y1="292.09" x2="309.03" y2="254.08"/><path class="cls-15" d="M924.27,472.45l-3.45.89c-2.39.56-20.82,4.61-38.14-3.78-2.12-1-18.37-9.22-19.58-24.16-1.05-13,10.16-21.63,14.43-24.92,10.17-7.84,25.52-13.12,28.86-10.57,4.28,3.26-15.57,16.11-10.31,29.45,2.21,5.6,8,9.23,11.93,11.22l16.26,7.69h.6l16.27-7.69c3.89-2,9.71-5.62,11.92-11.22,5.26-13.34-14.59-26.19-10.31-29.45,3.34-2.55,18.69,2.73,28.86,10.57,4.28,3.29,15.49,11.93,14.44,24.92-1.21,14.94-17.47,23.14-19.59,24.16-17.31,8.39-35.74,4.34-38.14,3.78l-3.45-.89Z" transform="translate(-614.55 -214.16)"/><path class="cls-16" d="M922.52,457.48c-2.66-.63-5.3-1.93-9.25-3.78a76.08,76.08,0,0,1-14.4-9.06,23.7,23.7,0,0,1-5.14-8.3c-1.17-2.88-.16-7.74,2-13.6.71-2,1.54-8.59,8.22-12.08,4.43-2.31,10-2.86,12.34-3l8.23,1.51h.09l8.22-1.51c2.35.16,7.91.71,12.34,3,6.68,3.49,7.51,10.12,8.23,12.08,2.13,5.86,2.2,10.72,1,13.6-1.83,4.48-5.72,8.34-7.2,9.81-.75.74-5.54,3.63-12.34,6.8-4,1.84-6.59,3.9-9.26,4.53Z" transform="translate(-614.55 -214.16)"/><path class="cls-17" d="M941.56,400.09c-.92-2.89-4-13.83,1.51-24.92,1.68-3.35,6.07-12.12,15.86-14.35.63-.14,9.93-2.1,17.37,3.78,10.3,8.15,7.42,23.76,6.79,27.18a37.53,37.53,0,0,1-9.81,18.88L968,406.89l-6-2.27-6.8-1.51-9.06-1.51h-3.77Z" transform="translate(-614.55 -214.16)"/><ellipse class="cls-18" cx="345.51" cy="177.24" rx="9.44" ry="12.46"/><ellipse class="cls-19" cx="344.76" cy="181.4" rx="4.91" ry="5.29"/><circle class="cls-14" cx="349.29" cy="176.49" r="3.4"/><circle class="cls-14" cx="342.49" cy="184.79" r="1.51"/><path class="cls-17" d="M911.25,400.09c.92-2.89,4-13.83-1.51-24.92-1.68-3.35-6.08-12.12-15.86-14.35-.63-.14-9.93-2.1-17.37,3.78-10.3,8.15-7.42,23.76-6.79,27.18a37.53,37.53,0,0,0,9.81,18.88l5.29-3.77,6-2.27,6.8-1.51,9.06-1.51h3.77Z" transform="translate(-614.55 -214.16)"/><ellipse class="cls-18" cx="278.2" cy="177.24" rx="9.44" ry="12.46"/><ellipse class="cls-19" cx="278.95" cy="181.4" rx="4.91" ry="5.29"/><circle class="cls-14" cx="274.42" cy="176.49" r="3.4"/><circle class="cls-14" cx="281.22" cy="184.79" r="1.51"/><path class="cls-20" d="M1008.77,611.53a20.56,20.56,0,0,1,18.12,6.79c5,5.8,4.78,12.59,4.53,18.88-.19,4.78-.5,12.64-6,16.61-1.06.76-4.22,3-7.55,2.27-3.07-.7-4.44-3.55-6.8-3-1.72.38-1.64,2-3,2.26-3.36.54-6.52-8.92-9.81-8.3-1.16.21-1.27,1.46-2.27,1.51-2.18.09-4.65-5.75-5.28-9.82C989.1,628.83,995.87,613.46,1008.77,611.53Z" transform="translate(-614.55 -214.16)"/><path class="cls-21" d="M1000.46,639.46c-.26.69-.52,1.45-.75,2.27-.39,1.37-.24,5.29-.38,6.42" transform="translate(-614.55 -214.16)"/><path class="cls-21" d="M1011,644.75a7.57,7.57,0,0,0-.75,2.27,13.71,13.71,0,0,0,0,3c0,.72.05,1.75,0,3" transform="translate(-614.55 -214.16)"/><path class="cls-20" d="M839.71,613.79a20.54,20.54,0,0,0-18.12,6.8c-5.05,5.79-4.78,12.58-4.53,18.87.19,4.79.5,12.64,6,16.62,1.06.76,4.22,3,7.55,2.26,3.07-.7,4.44-3.54,6.8-3,1.72.39,1.64,2,3,2.27,3.35.54,6.52-8.92,9.81-8.31,1.15.22,1.27,1.47,2.27,1.51,2.18.1,4.65-5.75,5.28-9.81C859.38,631.09,852.61,615.72,839.71,613.79Z" transform="translate(-614.55 -214.16)"/><path class="cls-21" d="M848,641.73c.26.69.52,1.45.75,2.27.39,1.37.24,5.29.38,6.41" transform="translate(-614.55 -214.16)"/><path class="cls-21" d="M837.45,647a7.49,7.49,0,0,1,.75,2.26,13.71,13.71,0,0,1,0,3c0,.72-.05,1.76,0,3" transform="translate(-614.55 -214.16)"/><path class="cls-22" d="M922.85,651.71h-7.1a23.75,23.75,0,0,0-.94-6.62,24.49,24.49,0,0,0-3.79-7.57c-4.78-6.75-8.18-15.25-10.4-20.81-3.47-8.68-5.21-13-4.73-18.91a30.06,30.06,0,0,1,6.62-16.08,28.94,28.94,0,0,1,15.13-10.4,21.54,21.54,0,0,1,6.63-1,48.66,48.66,0,0,1,8.51,1,28.9,28.9,0,0,1,15.13,10.4,30.06,30.06,0,0,1,6.62,16.08c.48,5.89-1.26,10.23-4.73,18.91-2.22,5.56-5.62,14.06-10.4,20.81a24.72,24.72,0,0,0-3.79,7.57,23.75,23.75,0,0,0-.94,6.62H922.85Z" transform="translate(-614.55 -214.16)"/><path class="cls-22" d="M922.1,651.71l-3.51-18.92c-.32-3.26-1.49-5.53-2.84-5.67a2.08,2.08,0,0,0-1.89.94,2.34,2.34,0,0,0,0,1.9,5.21,5.21,0,0,0,2.84,2.83c2.82,1.12,5.78-.76,7.57-1.89a6.28,6.28,0,0,0,2.83-2.84,4.88,4.88,0,0,0,0-3.78c-.2-.43-.81-1.76-1.89-1.89-1.27-.15-2.51,1.44-2.84,2.84a5,5,0,0,0,1,3.78,9.11,9.11,0,0,0,5.67,3.78c.51.12,4.86,1.12,6.62-.94a4.85,4.85,0,0,0,.95-1.89,2.7,2.7,0,0,0,0-1.9c0-.09-.38-.8-.95-.94-1.37-.34-3.26,2.9-3.78,3.78a19.48,19.48,0,0,0-1.89,4.73A49.68,49.68,0,0,0,928.05,647c-.09,1.95-.06,3.58,0,4.73" transform="translate(-614.55 -214.16)"/><path class="cls-23" d="M938.45,643.2a3.13,3.13,0,0,1,.95,2.83c-.26,1-1.09,1.26-.95,1.89s.69.43.95,1c.54,1.1-1.49,2.57-.95,3.78.21.48.58.37.95,1a3.49,3.49,0,0,1,0,2.84c-.48,1.15-1.15,1.23-3.79,3.78-.35.34-.61.6-.94.95a20.29,20.29,0,0,0-2.84,3.78l-6.62.94h-.08l-6.62-.94a14.4,14.4,0,0,0-2.69-3.78c-.33-.35-.6-.61-1-.95-2.63-2.55-3.3-2.63-3.78-3.78a3.41,3.41,0,0,1,0-2.84c.36-.58.73-.47.94-1,.54-1.21-1.48-2.68-.94-3.78.25-.52.82-.43.94-1s-.69-.92-.94-1.89a3.13,3.13,0,0,1,.94-2.83l.89-1,.94,1.89.95,1,2.83.94,3.79,1H929l3.79-1,2.83-.94.95-1,.89-1.89Z" transform="translate(-614.55 -214.16)"/><polyline class="cls-23" points="299.27 445.11 304.02 446.45 307.77 446.96 310.55 446.96 310.73 446.96 313.51 446.96 317.26 446.45 322.01 445.11"/><polyline class="cls-10" points="297.38 438.49 299.27 440.38 304.02 441.92 310.55 442.2 310.73 442.2 317.26 441.92 322.01 440.38 323.9 438.49"/><polyline class="cls-10" points="297.38 433.76 299.27 435.65 304.95 437.55 310.19 437.55 310.62 437.57 316.34 437.55 322.01 435.65 323.9 433.76"/><polygon class="cls-24" points="51.19 520.42 59.65 546.29 46.15 545.07 70.69 579.66 61.64 553.55 75.81 555.66 51.19 520.42"/><path class="cls-25" d="M723.82,757.76H735.5c8,0,13.55,2.72,13.55,9.64,0,3.89-2.07,7.35-5.75,8.55v.24c4.7.93,8,4,8,9.43,0,7.73-6.13,11.52-14.91,11.52H723.82Zm10.84,16.76c6.69,0,9.47-2.48,9.47-6.47,0-4.6-3.15-6.31-9.24-6.31h-6.06v12.78Zm1,18.64c6.74,0,10.7-2.43,10.7-7.73,0-4.85-3.81-7.07-10.7-7.07h-6.85v14.8Z" transform="translate(-614.55 -214.16)"/><path class="cls-25" d="M759.1,757.76h22.69V762H764.11v12.34H779v4.24H764.11V792.9h18.28v4.24H759.1Z" transform="translate(-614.55 -214.16)"/><path class="cls-25" d="M798.81,757.76h5.66l13.32,39.38h-5.31l-6.87-22c-1.41-4.4-2.67-8.72-3.94-13.27h-.24c-1.22,4.57-2.48,8.87-3.9,13.27l-6.94,22h-5.1Zm-6.31,23.38h18.13v4H792.5Z" transform="translate(-614.55 -214.16)"/><path class="cls-25" d="M817.14,757.76h5.31L828.8,779c1.39,4.64,2.33,8.39,3.79,13h.24c1.46-4.62,2.43-8.37,3.79-13l6.31-21.28H848l-12.5,39.38h-5.81Z" transform="translate(-614.55 -214.16)"/><path class="cls-25" d="M853.18,757.76h22.69V762H858.19v12.34h14.92v4.24H858.19V792.9h18.28v4.24H853.18Z" transform="translate(-614.55 -214.16)"/><path class="cls-25" d="M884.79,757.76h12.34c8,0,13.78,2.88,13.78,11.08,0,7.87-5.76,11.65-13.78,11.65h-7.32v16.65h-5Zm11.62,18.67c6.13,0,9.5-2.48,9.5-7.59s-3.37-7-9.5-7h-6.6v14.61Zm-.27,2.69,3.93-2.59,12,20.61H906.4Z" transform="translate(-614.55 -214.16)"/><path class="cls-25" d="M915.24,792l3-3.44a15.37,15.37,0,0,0,10.86,4.88c5.17,0,8.23-2.57,8.23-6.4,0-4-2.85-5.3-6.57-6.93l-5.65-2.49c-3.67-1.57-8-4.35-8-10.14,0-6,5.25-10.45,12.4-10.45a16.26,16.26,0,0,1,11.6,4.88l-2.66,3.22a12.59,12.59,0,0,0-8.94-3.7c-4.41,0-7.34,2.23-7.34,5.75,0,3.8,3.43,5.22,6.52,6.52l5.61,2.43c4.56,2,8.11,4.67,8.11,10.53,0,6.22-5.14,11.19-13.42,11.19A18.88,18.88,0,0,1,915.24,792Z" transform="translate(-614.55 -214.16)"/><path class="cls-25" d="M962.13,757.76h5v16.49h18.31V757.76h5v39.38h-5V778.62H967.15v18.52h-5Z" transform="translate(-614.55 -214.16)"/><path class="cls-25" d="M999,777.31c0-12.62,6.94-20.27,16.83-20.27s16.83,7.68,16.83,20.27-6.94,20.55-16.83,20.55S999,789.92,999,777.31Zm28.48,0c0-9.81-4.62-15.87-11.65-15.87s-11.66,6.06-11.66,15.87,4.63,16.14,11.66,16.14S1027.45,787.12,1027.45,777.31Z" transform="translate(-614.55 -214.16)"/><path class="cls-25" d="M1041.09,757.76h6l7.55,21c.94,2.69,1.85,5.47,2.79,8.2h.24c1-2.73,1.78-5.51,2.73-8.2l7.46-21h6v39.38h-4.66V775.46c0-3.43.39-8.17.64-11.65h-.24l-3.13,9-7.41,20.37h-3.32l-7.46-20.37-3.12-9H1045c.26,3.48.64,8.22.64,11.65v21.68h-4.54Z" transform="translate(-614.55 -214.16)"/><path class="cls-25" d="M1084.71,757.76h22.7V762h-17.69v12.34h14.92v4.24h-14.92V792.9H1108v4.24h-23.3Z" transform="translate(-614.55 -214.16)"/><path class="cls-25" d="M1113.48,792l3-3.44a15.41,15.41,0,0,0,10.87,4.88c5.17,0,8.23-2.57,8.23-6.4,0-4-2.85-5.3-6.57-6.93l-5.65-2.49c-3.67-1.57-8-4.35-8-10.14,0-6,5.24-10.45,12.4-10.45a16.22,16.22,0,0,1,11.59,4.88l-2.65,3.22a12.6,12.6,0,0,0-8.94-3.7c-4.42,0-7.34,2.23-7.34,5.75,0,3.8,3.43,5.22,6.52,6.52l5.61,2.43c4.55,2,8.11,4.67,8.11,10.53,0,6.22-5.14,11.19-13.42,11.19A18.86,18.86,0,0,1,1113.48,792Z" transform="translate(-614.55 -214.16)"/><polygon class="cls-24" points="575.77 523.42 567.32 549.29 580.81 548.07 556.27 582.66 565.32 556.55 551.15 558.66 575.77 523.42"/></g></svg>