<?xml version="1.0" encoding="utf-8"?>
<!-- Generator: Adobe Illustrator 25.0.0, SVG Export Plug-In . SVG Version: 6.00 Build 0)  -->
<svg version="1.1" xmlns="http://www.w3.org/2000/svg" xmlns:xlink="http://www.w3.org/1999/xlink" x="0px" y="0px"
	 viewBox="0 0 64 64" enable-background="new 0 0 64 64" xml:space="preserve">
<g id="Name">
</g>
<g id="Layer_19">
</g>
<g id="Layer_21">
</g>
<g id="Layer_22">
</g>
<g id="Layer_20">
</g>
<g id="Layer_17">
</g>
<g id="Layer_18">
</g>
<g id="Hat">
</g>
<g id="Layer_4">
</g>
<g id="Layer_13">
</g>
<g id="Ears">
</g>
<g id="Stomach">
</g>
<g id="Mouth">
</g>
<g id="Teeth">
</g>
<g id="Cheeks">
</g>
<g id="Nose">
</g>
<g id="Eyes">
</g>
<g id="Layer_5">
</g>
<g id="light_bulb">
</g>
<g id="Layer_23">
	<g>
		<polyline fill="none" stroke="#000000" stroke-miterlimit="10" points="1.5,20.2 32,2.9 62.1,20.2 		"/>
		<g>
			<polyline fill="none" stroke="#000000" stroke-miterlimit="10" points="8.4,19.6 8.4,51.3 31.6,51.3 54.9,51.3 54.9,19.6 			"/>
		</g>
	</g>
	<path fill="#AC948B" stroke="#000000" stroke-width="0.5" stroke-miterlimit="10" d="M37,40c1.1-0.4,1.8-0.9,2.2-1.3
		c1.4-1.3,1.8-3.4,2-4.6c0.3-1.2,0.1-1.5,0.5-1.7c1.1-0.9,4.1,0.6,5.9,2.5c0.9,1,2,2.1,2,3.7c0,2.2-2.1,3.7-5,5.9
		c-1.7,1.3-3,1.8-4.1,2.1c-1,0.3-1.8,0.4-2.4,0.5L37,40z"/>
	<path fill="none" stroke="#000000" stroke-width="0.25" stroke-miterlimit="10" d="M42.1,33.1c0.7,0.1,1.9,0.2,3,0.8
		c0.3,0.1,3.5,1.8,3.4,4.1c0,0.8-0.5,1.3-0.8,1.7c-2.1,2.5-5.2,4.6-7.2,5.8"/>
	<line fill="none" stroke="#000000" stroke-width="0.25" stroke-miterlimit="10" x1="43.3" y1="34.2" x2="46.5" y2="39.3"/>
	<line fill="none" stroke="#000000" stroke-width="0.25" stroke-miterlimit="10" x1="41.6" y1="36.4" x2="44.5" y2="41.3"/>
	<line fill="none" stroke="#000000" stroke-width="0.25" stroke-miterlimit="10" x1="46.5" y1="36.7" x2="39.5" y2="41.6"/>
	<line fill="none" stroke="#000000" stroke-width="0.25" stroke-miterlimit="10" x1="44.5" y1="34.9" x2="39.6" y2="39.6"/>
	<path fill="#3FA9F5" stroke="#000000" stroke-width="0.5" stroke-miterlimit="10" d="M23.9,13.9c0.2-0.9,1.1-2.6,2-3.6
		c0.4-0.4,0.7-0.7,1.1-1c1-0.7,1.4-1.1,2-1.1c0.1,0,0.3,0,0.5-0.1c0.2-0.1,0.1-0.4,0.3-0.6c0.2-0.3,0.6-0.4,1.2-0.5
		c0.3,0,1.1,0,1.1,0c0.5,0,0.8,0,1.1,0c0.6,0.1,1,0.1,1.2,0.5c0.2,0.2,0.1,0.5,0.3,0.6c0.2,0.1,0.4,0.1,0.5,0.1c0.5,0,1,0.3,2,1.1
		c0.4,0.3,0.8,0.6,1.1,1c0.9,1,1.3,2.1,1.5,3"/>
	<polyline fill="#F7931E" stroke="#000000" stroke-width="2" stroke-miterlimit="10" points="30.4,12.4 32,12.2 33.6,12.4 	"/>
	<path fill="#3FA9F5" stroke="#000000" stroke-width="0.25" stroke-miterlimit="10" d="M38.7,13.4l-1.4,1l-0.9-0.3l-0.7-0.3
		l-3.6-0.3H32l-3.6,0.3l-0.7,0.3l-0.9,0.3c0,0-0.9-0.4-0.8-0.7c0.1-0.3,1.7-0.4,1.7-0.4l0.3-0.4l0.9-0.3l1.6-0.2l-0.3-2.2l-0.2-1.3
		l-0.5-0.7"/>
	<g>
		<polyline fill="none" stroke="#000000" stroke-width="0.25" stroke-miterlimit="10" points="39.6,13.2 38.1,13.7 36.4,13.3 
			36.1,12.8 35.2,12.5 33.6,12.4 33.9,10.2 34.1,8.8 34.6,8.2 		"/>
	</g>
	<path fill="#F7931E" stroke="#000000" stroke-width="4" stroke-miterlimit="10" d="M26,13.6"/>
	<path fill="#F7931E" stroke="#000000" stroke-width="2" stroke-miterlimit="10" d="M24.7,14"/>
	<path fill="#D1BC98" stroke="#000000" stroke-width="0.5" stroke-miterlimit="10" d="M32,13.5l-2.5,0.2l-2,0.3l-0.8,0.5
		c-0.1-0.1-0.7-1-1.9-1.1c-0.2,0-1.1-0.1-1.7,0.5c-0.8,0.7-0.6,2-0.2,2.8c0.1,0.2,0.4,0.7,1.1,1.1c0.3,0.2,0.6,0.2,0.6,0.3
		c0.1,0.2-0.2,0.5-1.6,1.3h0.4l-0.9,0.9l0.5,0.2l-1.6,1.1l0.9-0.2L20.5,23l0.9-0.7l-1.1,2.5l0.4-0.3l-0.2,1.8l0.2-0.2l0.3,2.5
		l0.2-0.8L22,30l0.1-0.9l1.2,2.6V31l1,2.1v-0.8l0.4,0.7c1,0.8,1.4,1.3,1.4,1.4h-0.3c-0.4,0-1.1,0-1.9,0.3c-0.7,0.3-1.1,0.7-1.4,1
		c-0.2,0.2-0.3,0.4-0.4,0.5c-0.7,0.9-0.8,1.8-0.9,2.3c-0.3,1.9,0.3,4,0.6,3.8c0.2-0.2,0.4-0.5,0.8-0.7c0.4-0.1,0.8,0.1,1-0.1
		c0.2-0.1-0.1-0.3-0.1-0.7c0-0.1,0-1.2,0.4-1.7c0.1-0.1,0.5-0.6,1.5-0.7l0.4-1.7l-0.1,0.9l-0.5,2.3l-1.5,5.8l0.2,1.4l0.9,1.2
		l1.4,0.9l-0.5,0.2l-1.3,0.4L23.6,50l-0.8-0.1l-0.5,0.5V51l0.3,0.5l0.3,0.1l0.4,0l0.3,0h0.5h0.3h0.3l0.5,0.1h1.2l1.3-0.3l1-0.2
		l1.4,0.2l0.5-0.2l0.2-0.3l0.1-0.6l-0.5-0.7L30.1,49l0.7,0h0.9h0.5h0.8l0.7,0l-0.2,0.5l-0.5,0.7l0.1,0.6l0.2,0.3l0.5,0.2l1.4-0.2
		l1,0.2l1.3,0.3h1.2l0.5-0.1h0.3h0.3h0.5l0.3,0l0.4,0l0.3-0.1l0.3-0.5v-0.5l-0.5-0.5L40.3,50l-0.7-0.2l-1.3-0.4l-0.5-0.2l1.4-0.9
		l0.9-1.2l0.2-1.4l-1.5-5.8l-0.2-2.3l-0.1-0.9l0.2,1.5c1.1,0,1.2,0.6,1.3,0.7c0.4,0.6,0.4,1.6,0.4,1.7c0,0.4-0.2,0.5-0.1,0.7
		c0.2,0.2,0.6-0.1,1,0.1c0.5,0.2,0.7,0.5,0.8,0.7c0.3,0.3,0.9-1.9,0.6-3.8c-0.1-0.5-0.2-1.4-0.9-2.3c-0.1-0.1-0.2-0.3-0.4-0.5
		c-0.3-0.3-0.8-0.7-1.4-1c-0.8-0.3-1.5-0.3-1.9-0.3c0,0,0.7-0.6,1.2-1.2l0.4-0.7v0.8l1-2.1v0.8l1.2-2.6L42,30l0.8-2.3l0.2,0.8
		l0.3-2.5l0.2,0.2l-0.2-1.8l0.4,0.3l-1.1-2.5l0.9,0.7l-1.7-1.8l0.9,0.2l-1.6-1.1l0.5-0.2l-0.9-0.9h0.4c-1.4-0.7-1.7-1.1-1.6-1.3
		c0-0.1,0.3-0.1,0.6-0.3c0.6-0.3,1-0.9,1.1-1.1c0.4-0.8,0.6-2.1-0.2-2.8c-0.6-0.6-1.4-0.5-1.7-0.5c-1.1,0.1-1.8,1-1.9,1.1L36.5,14
		l-2-0.3L32,13.5z"/>
	<path fill="none" stroke="#000000" stroke-width="0.15" stroke-miterlimit="10" d="M38.4,50.1c0,0,0.5-0.1,0.9,0.2
		c0.3,0.3,0.4,0.7,0.2,1.1"/>
	<path fill="none" stroke="#000000" stroke-width="0.15" stroke-miterlimit="10" d="M39.9,50.2c0.3,0,0.5,0.1,0.7,0.4
		c0.1,0.3,0.1,0.6-0.1,0.8"/>
	<path fill="none" stroke="#000000" stroke-width="0.15" stroke-miterlimit="10" d="M25.6,50.2c-0.2-0.1-0.3,0-0.5,0.1
		s-0.3,0.2-0.5,0.4c-0.3,0.4-0.2,0.7-0.2,0.8"/>
	<path fill="none" stroke="#000000" stroke-width="0.15" stroke-miterlimit="10" d="M23.9,50.2c-0.1,0-0.3,0.1-0.4,0.3
		c-0.3,0.4-0.1,0.9-0.1,0.9"/>
	<path fill="none" stroke="#000000" stroke-width="2" stroke-miterlimit="10" d="M24.9,17.5"/>
	<path fill="none" stroke="#000000" stroke-width="2" stroke-miterlimit="10" d="M26.3,16.1"/>
	<ellipse fill="#8A7C63" stroke="#000000" stroke-width="0.25" stroke-miterlimit="10" cx="24.5" cy="15.6" rx="1.5" ry="1.6"/>
	<ellipse fill="#8A7C63" stroke="#000000" stroke-width="0.25" stroke-miterlimit="10" cx="39.5" cy="15.5" rx="1.4" ry="1.5"/>
	<path fill="#FAECCA" stroke="#000000" stroke-width="0.25" stroke-miterlimit="10" d="M32,35.4c-0.3,0-0.7,0-1.1,0.1
		c-0.5,0.1-1.4,0.2-2.2,1c-0.2,0.2-0.8,0.8-1,1.6c-0.1,0.3-0.1,0.8-0.1,1.4c0,0.5,0,0.5,0,0.7c-0.1,0.6-0.3,1-0.7,1.5
		c-0.5,0.8-0.7,1.1-0.8,1.7c-0.3,1,0.1,1.9,0.2,2.3c0.3,0.7,0.7,1.1,1,1.4c1.2,1.1,2.6,1.4,3.2,1.4h2.9c0.7-0.1,2.1-0.3,3.2-1.4
		c0.2-0.2,0.7-0.7,1-1.4c0.2-0.4,0.5-1.3,0.2-2.3c-0.1-0.5-0.4-0.9-0.8-1.7c-0.3-0.5-0.6-0.9-0.7-1.5c0-0.2,0-0.2,0-0.7
		c0-0.6,0-1-0.1-1.4c-0.2-0.8-0.7-1.4-1-1.6c-0.8-0.8-1.7-0.9-2.2-1C32.6,35.3,32.2,35.3,32,35.4"/>
	<path fill="#A78F92" stroke="#000000" stroke-width="0.25" stroke-miterlimit="10" d="M32,33.1h-2.4c-0.3,0-0.6,0-1-0.2
		c-1.1-0.6-1.5-2.1-2.1-4.5c-0.4-1.7-0.2-2-0.1-2c0.7-0.1,1.1,0.1,3,0.1c0.2,0,1.2-0.5,2.3-0.5c1.2,0,2.6,0.7,2.9,0.7
		c1.8,0,2.6-0.8,3-0.3c0.1,0.1,0.2,0.4-0.2,2c-0.6,2.5-1,3.9-2.1,4.5c-0.4,0.2-0.7,0.2-1,0.2H32"/>
	<g>
		<polygon fill="#FFFFFF" stroke="#000000" stroke-width="0.25" stroke-miterlimit="10" points="31.8,27.1 30.8,27.3 30.2,27.6 
			30.2,31.2 30.5,31.9 32,31.9 31.8,31.9 33.4,31.9 33.7,31.2 33.7,27.5 33.1,27.5 31.9,27.1 		"/>
		<line fill="#FFFFFF" stroke="#000000" stroke-width="0.25" stroke-miterlimit="10" x1="31.9" y1="30.9" x2="31.8" y2="27.1"/>
	</g>
	<path fill="#F9EAC8" stroke="#000000" stroke-width="0.25" stroke-miterlimit="10" d="M31.9,27.5l-0.3,0.1
		c-0.2,0.1-2.1,0.5-3.8-0.4c-0.2-0.1-1.8-0.9-2-2.4c-0.1-1.3,1-2.2,1.4-2.5c1-0.8,2.5-1.3,2.9-1.1c0.4,0.3-1.6,1.6-1,2.9
		c0.2,0.6,0.8,0.9,1.2,1.1l1.6,0.8H32l1.6-0.8c0.4-0.2,1-0.6,1.2-1.1c0.5-1.3-1.5-2.6-1-2.9c0.3-0.3,1.9,0.3,2.9,1.1
		c0.4,0.3,1.5,1.2,1.4,2.5c-0.1,1.5-1.7,2.3-2,2.4c-1.7,0.8-3.6,0.4-3.8,0.4L31.9,27.5L31.9,27.5z"/>
	<path fill="#B59A8A" stroke="#000000" stroke-width="0.25" stroke-miterlimit="10" d="M31.7,26c-0.3-0.1-0.5-0.2-0.9-0.4
		c-0.7-0.3-1.4-0.8-1.4-0.9c-0.1-0.1-0.3-0.4-0.5-0.8c-0.1-0.3,0-0.8,0.2-1.4c0.1-0.2,0.2-0.9,0.8-1.2c0.4-0.2,1-0.3,1.2-0.3
		l0.8,0.2h0l0.8-0.2c0.2,0,0.8,0.1,1.2,0.3c0.7,0.3,0.7,1,0.8,1.2c0.2,0.6,0.2,1.1,0.1,1.4c-0.2,0.4-0.6,0.8-0.7,1
		c-0.1,0.1-0.6,0.4-1.2,0.7c-0.4,0.2-0.7,0.4-0.9,0.5H31.7z"/>
	<path fill="#FFFFFF" stroke="#000000" stroke-width="0.25" stroke-miterlimit="10" d="M33.6,20.3c-0.1-0.3-0.4-1.4,0.2-2.5
		c0.2-0.3,0.6-1.2,1.6-1.4c0.1,0,1-0.2,1.7,0.4c1,0.8,0.7,2.4,0.7,2.7c-0.2,0.9-0.7,1.6-1,1.9L36.3,21l-0.6-0.2L35,20.6l-0.9-0.2
		h-0.4L33.6,20.3z"/>
	<ellipse fill="#754C24" stroke="#000000" stroke-width="0.25" stroke-miterlimit="10" cx="35.5" cy="19.4" rx="0.9" ry="1.2"/>
	<ellipse stroke="#000000" stroke-width="0.25" stroke-miterlimit="10" cx="35.4" cy="19.8" rx="0.5" ry="0.5"/>
	<circle fill="#FFFFFF" stroke="#000000" stroke-width="0.15" stroke-miterlimit="10" cx="35.9" cy="19.3" r="0.3"/>
	<circle fill="#FFFFFF" stroke="#000000" stroke-width="0.1" stroke-miterlimit="10" cx="35.2" cy="20.1" r="0.2"/>
	<path fill="#FFFFFF" stroke="#000000" stroke-width="0.25" stroke-miterlimit="10" d="M30.6,20.3c0.1-0.3,0.4-1.4-0.2-2.5
		c-0.2-0.3-0.6-1.2-1.6-1.4c-0.1,0-1-0.2-1.7,0.4c-1,0.8-0.7,2.4-0.7,2.7c0.2,0.9,0.7,1.6,1,1.9L28,21l0.6-0.2l0.7-0.2l0.9-0.2h0.4
		L30.6,20.3z"/>
	<ellipse fill="#754C24" stroke="#000000" stroke-width="0.25" stroke-miterlimit="10" cx="28.8" cy="19.4" rx="0.9" ry="1.2"/>
	<ellipse stroke="#000000" stroke-width="0.25" stroke-miterlimit="10" cx="28.8" cy="19.8" rx="0.5" ry="0.5"/>
	<circle fill="#FFFFFF" stroke="#000000" stroke-width="0.15" stroke-miterlimit="10" cx="28.4" cy="19.3" r="0.3"/>
	<circle fill="#FFFFFF" stroke="#000000" stroke-width="0.1" stroke-miterlimit="10" cx="29.1" cy="20.1" r="0.2"/>
	<g>
		<path fill="#42210B" stroke="#000000" stroke-width="0.25" stroke-miterlimit="10" d="M40.3,41.4c0.7-0.1,1.4,0.2,1.8,0.7
			c0.5,0.6,0.5,1.3,0.5,1.9c0,0.5-0.1,1.3-0.6,1.7c-0.1,0.1-0.4,0.3-0.8,0.2c-0.3-0.1-0.4-0.4-0.7-0.3c-0.2,0-0.2,0.2-0.3,0.2
			c-0.3,0.1-0.7-0.9-1-0.8c-0.1,0-0.1,0.1-0.2,0.2c-0.2,0-0.5-0.6-0.5-1C38.4,43.1,39,41.5,40.3,41.4z"/>
		<path fill="none" stroke="#000000" stroke-width="0.25" stroke-miterlimit="10" d="M39.5,44.1c0,0.1-0.1,0.1-0.1,0.2
			c0,0.1,0,0.5,0,0.6"/>
		<path fill="none" stroke="#000000" stroke-width="0.25" stroke-miterlimit="10" d="M40.6,44.7c0,0.1-0.1,0.1-0.1,0.2
			c0,0.1,0,0.2,0,0.3c0,0.1,0,0.2,0,0.3"/>
	</g>
	<g>
		<path fill="#42210B" stroke="#000000" stroke-width="0.25" stroke-miterlimit="10" d="M23.5,41.6c-0.7-0.1-1.4,0.2-1.8,0.7
			c-0.5,0.6-0.5,1.3-0.5,1.9c0,0.5,0.1,1.3,0.6,1.7c0.1,0.1,0.4,0.3,0.8,0.2c0.3-0.1,0.4-0.4,0.7-0.3c0.2,0,0.2,0.2,0.3,0.2
			c0.3,0.1,0.7-0.9,1-0.8c0.1,0,0.1,0.1,0.2,0.2c0.2,0,0.5-0.6,0.5-1C25.4,43.3,24.8,41.8,23.5,41.6z"/>
		<path fill="none" stroke="#000000" stroke-width="0.25" stroke-miterlimit="10" d="M24.3,44.4c0,0.1,0.1,0.1,0.1,0.2
			c0,0.1,0,0.5,0,0.6"/>
		<path fill="none" stroke="#000000" stroke-width="0.25" stroke-miterlimit="10" d="M23.3,44.9c0,0.1,0.1,0.1,0.1,0.2
			c0,0.1,0,0.2,0,0.3c0,0.1,0,0.2,0,0.3"/>
	</g>
	<g>
		<path fill="#FFFF00" stroke="#000000" stroke-width="0.15" stroke-miterlimit="10" d="M31.8,45.4h-0.7c0-0.1,0-0.4-0.1-0.7
			c-0.1-0.4-0.3-0.7-0.4-0.8c-0.5-0.7-0.8-1.5-1-2.1C29.2,41,29,40.6,29.1,40c0.1-0.8,0.5-1.4,0.7-1.6c0.2-0.2,0.7-0.8,1.5-1
			c0.3-0.1,0.5-0.1,0.7-0.1c0,0,0.5,0,0.8,0.1c0.9,0.2,1.3,0.8,1.5,1c0.1,0.2,0.6,0.8,0.7,1.6c0,0.6-0.1,1-0.5,1.9
			c-0.2,0.6-0.6,1.4-1,2.1c-0.1,0.1-0.3,0.4-0.4,0.8c-0.1,0.3-0.1,0.5-0.1,0.7h-0.7H31.8z"/>
		<path fill="#FFFF00" stroke="#000000" stroke-width="0.15" stroke-miterlimit="10" d="M31.7,45.4l-0.3-1.9c0-0.3-0.1-0.6-0.3-0.6
			c-0.1,0-0.1,0-0.2,0.1c0,0.1,0,0.2,0,0.2c0.1,0.2,0.3,0.3,0.3,0.3c0.3,0.1,0.6-0.1,0.8-0.2c0.1-0.1,0.2-0.1,0.3-0.3
			c0,0,0.1-0.2,0-0.4c0,0-0.1-0.2-0.2-0.2c-0.1,0-0.3,0.1-0.3,0.3c0,0.2,0,0.3,0.1,0.4c0.2,0.3,0.5,0.4,0.6,0.4
			c0.1,0,0.5,0.1,0.7-0.1c0,0,0.1-0.1,0.1-0.2c0-0.1,0-0.1,0-0.2c0,0,0-0.1-0.1-0.1c-0.1,0-0.3,0.3-0.4,0.4
			c-0.1,0.1-0.1,0.3-0.2,0.5c-0.2,0.5-0.2,1-0.2,1.1c0,0.2,0,0.4,0,0.5"/>
	</g>
	<g>
		<path fill="#CFCFCE" stroke="#000000" stroke-width="0.15" stroke-miterlimit="10" d="M33.3,44.5c0.1,0.1,0.1,0.2,0.1,0.3
			c0,0.1-0.1,0.1-0.1,0.2c0,0.1,0.1,0,0.1,0.1c0.1,0.1-0.1,0.3-0.1,0.4c0,0,0.1,0,0.1,0.1c0.1,0.1,0,0.3,0,0.3
			c0,0.1-0.1,0.1-0.4,0.4c0,0-0.1,0.1-0.1,0.1c-0.1,0.1-0.2,0.3-0.3,0.4L32,46.8h0l-0.7-0.1c0-0.1-0.1-0.2-0.3-0.4
			c0,0-0.1-0.1-0.1-0.1c-0.3-0.3-0.3-0.3-0.4-0.4c0,0-0.1-0.2,0-0.3c0-0.1,0.1,0,0.1-0.1c0.1-0.1-0.1-0.3-0.1-0.4
			c0-0.1,0.1,0,0.1-0.1c0-0.1-0.1-0.1-0.1-0.2c0-0.1,0-0.2,0.1-0.3l0.1-0.1l0.1,0.2l0.1,0.1l0.3,0.1l0.4,0.1h0.8l0.4-0.1l0.3-0.1
			l0.1-0.1L33.3,44.5L33.3,44.5z"/>
		<polyline fill="#CFCFCE" stroke="#000000" stroke-width="0.15" stroke-miterlimit="10" points="30.9,46.1 31.3,46.2 31.7,46.3 
			32,46.3 32,46.3 32.3,46.3 32.7,46.2 33.1,46.1 		"/>
	</g>
	<g>
		<polyline fill="none" stroke="#000000" stroke-width="0.15" stroke-miterlimit="10" points="30.7,45.5 30.9,45.6 31.3,45.8 
			32,45.8 32,45.8 32.7,45.8 33.1,45.6 33.3,45.5 		"/>
		<polyline fill="none" stroke="#000000" stroke-width="0.15" stroke-miterlimit="10" points="30.7,45 30.9,45.2 31.4,45.4 32,45.4 
			32,45.4 32.6,45.4 33.1,45.2 33.3,45 		"/>
	</g>
	<polygon fill="#FFFF00" stroke="#000000" stroke-width="0.25" stroke-miterlimit="10" points="6.1,53.6 7,56.2 5.6,56.1 8.1,59.5 
		7.2,56.9 8.6,57.1 	"/>
	<g>
		<g>
			<path fill="#3FA9F5" d="M11.9,55.9h1.2c0.8,0,1.4,0.3,1.4,1c0,0.4-0.2,0.7-0.6,0.9v0c0.5,0.1,0.8,0.4,0.8,0.9
				c0,0.8-0.6,1.1-1.5,1.1h-1.3V55.9z M13,57.6c0.7,0,0.9-0.2,0.9-0.6c0-0.5-0.3-0.6-0.9-0.6h-0.6v1.3H13z M13.1,59.5
				c0.7,0,1.1-0.2,1.1-0.8c0-0.5-0.4-0.7-1.1-0.7h-0.7v1.5H13.1z"/>
			<path fill="#3FA9F5" d="M15.4,55.9h2.3v0.4h-1.8v1.2h1.5V58h-1.5v1.4h1.8v0.4h-2.3V55.9z"/>
			<path fill="#3FA9F5" d="M19.4,55.9H20l1.3,3.9h-0.5l-0.7-2.2c-0.1-0.4-0.3-0.9-0.4-1.3h0c-0.1,0.5-0.2,0.9-0.4,1.3l-0.7,2.2h-0.5
				L19.4,55.9z M18.8,58.3h1.8v0.4h-1.8V58.3z"/>
			<path fill="#3FA9F5" d="M21.3,55.9h0.5l0.6,2.1c0.1,0.5,0.2,0.8,0.4,1.3h0c0.1-0.5,0.2-0.8,0.4-1.3l0.6-2.1h0.5l-1.2,3.9h-0.6
				L21.3,55.9z"/>
			<path fill="#3FA9F5" d="M24.9,55.9h2.3v0.4h-1.8v1.2h1.5V58h-1.5v1.4h1.8v0.4h-2.3V55.9z"/>
			<path fill="#3FA9F5" d="M28.1,55.9h1.2c0.8,0,1.4,0.3,1.4,1.1c0,0.8-0.6,1.2-1.4,1.2h-0.7v1.7h-0.5V55.9z M29.2,57.8
				c0.6,0,0.9-0.2,0.9-0.8c0-0.5-0.3-0.7-0.9-0.7h-0.7v1.5H29.2z M29.2,58.1l0.4-0.3l1.2,2.1h-0.6L29.2,58.1z"/>
			<path fill="#3FA9F5" d="M31.2,59.3l0.3-0.3c0.3,0.3,0.7,0.5,1.1,0.5c0.5,0,0.8-0.3,0.8-0.6c0-0.4-0.3-0.5-0.7-0.7l-0.6-0.2
				c-0.4-0.2-0.8-0.4-0.8-1c0-0.6,0.5-1,1.2-1c0.5,0,0.9,0.2,1.2,0.5l-0.3,0.3c-0.2-0.2-0.5-0.4-0.9-0.4c-0.4,0-0.7,0.2-0.7,0.6
				c0,0.4,0.3,0.5,0.6,0.6l0.6,0.2c0.5,0.2,0.8,0.5,0.8,1c0,0.6-0.5,1.1-1.3,1.1C32,59.9,31.5,59.7,31.2,59.3z"/>
			<path fill="#3FA9F5" d="M35.9,55.9h0.5v1.6h1.8v-1.6h0.5v3.9h-0.5V58h-1.8v1.8h-0.5V55.9z"/>
			<path fill="#3FA9F5" d="M39.5,57.9c0-1.3,0.7-2,1.7-2s1.7,0.8,1.7,2c0,1.3-0.7,2-1.7,2S39.5,59.1,39.5,57.9z M42.4,57.9
				c0-1-0.5-1.6-1.2-1.6s-1.2,0.6-1.2,1.6c0,1,0.5,1.6,1.2,1.6S42.4,58.9,42.4,57.9z"/>
			<path fill="#3FA9F5" d="M43.7,55.9h0.6l0.8,2.1c0.1,0.3,0.2,0.5,0.3,0.8h0c0.1-0.3,0.2-0.5,0.3-0.8l0.7-2.1H47v3.9h-0.5v-2.2
				c0-0.3,0-0.8,0.1-1.2h0l-0.3,0.9l-0.7,2h-0.3l-0.7-2l-0.3-0.9h0c0,0.3,0.1,0.8,0.1,1.2v2.2h-0.5V55.9z"/>
			<path fill="#3FA9F5" d="M48.1,55.9h2.3v0.4h-1.8v1.2h1.5V58h-1.5v1.4h1.8v0.4h-2.3V55.9z"/>
			<path fill="#3FA9F5" d="M51,59.3l0.3-0.3c0.3,0.3,0.7,0.5,1.1,0.5c0.5,0,0.8-0.3,0.8-0.6c0-0.4-0.3-0.5-0.7-0.7l-0.6-0.2
				c-0.4-0.2-0.8-0.4-0.8-1c0-0.6,0.5-1,1.2-1c0.5,0,0.9,0.2,1.2,0.5l-0.3,0.3c-0.2-0.2-0.5-0.4-0.9-0.4c-0.4,0-0.7,0.2-0.7,0.6
				c0,0.4,0.3,0.5,0.7,0.6l0.6,0.2c0.5,0.2,0.8,0.5,0.8,1c0,0.6-0.5,1.1-1.3,1.1C51.8,59.9,51.3,59.7,51,59.3z"/>
		</g>
	</g>
	<polygon fill="#FFFF00" stroke="#000000" stroke-width="0.25" stroke-miterlimit="10" points="58.4,53.9 57.6,56.5 58.9,56.4 
		56.5,59.8 57.4,57.2 56,57.4 	"/>
</g>
</svg>
